<mxfile host="app.diagrams.net" modified="2024-07-02T02:29:22.538Z" agent="Mozilla/5.0 (Windows NT 10.0; Win64; x64) AppleWebKit/537.36 (KHTML, like Gecko) Chrome/126.0.0.0 Safari/537.36" etag="XMiId9XskIrHDQBtmlvl" version="24.6.4" type="device">
  <diagram name="Page-1" id="74e2e168-ea6b-b213-b513-2b3c1d86103e">
    <mxGraphModel dx="792" dy="1948" grid="1" gridSize="10" guides="1" tooltips="1" connect="1" arrows="1" fold="1" page="1" pageScale="1" pageWidth="1100" pageHeight="850" background="none" math="0" shadow="0">
      <root>
        <mxCell id="0" />
        <mxCell id="1" parent="0" />
        <mxCell id="yg1M-SZNW3PLlmC7koU4-3" value="" style="edgeStyle=orthogonalEdgeStyle;rounded=0;orthogonalLoop=1;jettySize=auto;html=1;" edge="1" parent="1" source="yg1M-SZNW3PLlmC7koU4-1" target="yg1M-SZNW3PLlmC7koU4-2">
          <mxGeometry relative="1" as="geometry" />
        </mxCell>
        <mxCell id="yg1M-SZNW3PLlmC7koU4-9" value="" style="edgeStyle=orthogonalEdgeStyle;rounded=0;orthogonalLoop=1;jettySize=auto;html=1;" edge="1" parent="1" source="yg1M-SZNW3PLlmC7koU4-1" target="yg1M-SZNW3PLlmC7koU4-8">
          <mxGeometry relative="1" as="geometry" />
        </mxCell>
        <mxCell id="yg1M-SZNW3PLlmC7koU4-1" value="Get Initial Number" style="rounded=1;whiteSpace=wrap;html=1;" vertex="1" parent="1">
          <mxGeometry x="410" y="140" width="120" height="60" as="geometry" />
        </mxCell>
        <mxCell id="yg1M-SZNW3PLlmC7koU4-11" value="" style="edgeStyle=orthogonalEdgeStyle;rounded=0;orthogonalLoop=1;jettySize=auto;html=1;" edge="1" parent="1" source="yg1M-SZNW3PLlmC7koU4-2" target="yg1M-SZNW3PLlmC7koU4-10">
          <mxGeometry relative="1" as="geometry" />
        </mxCell>
        <mxCell id="yg1M-SZNW3PLlmC7koU4-2" value="Get Action Type(+, -, *, /)" style="whiteSpace=wrap;html=1;rounded=1;" vertex="1" parent="1">
          <mxGeometry x="410" y="280" width="120" height="60" as="geometry" />
        </mxCell>
        <mxCell id="yg1M-SZNW3PLlmC7koU4-8" value="Start" style="rhombus;whiteSpace=wrap;html=1;rounded=1;" vertex="1" parent="1">
          <mxGeometry x="430" y="-10" width="80" height="80" as="geometry" />
        </mxCell>
        <mxCell id="yg1M-SZNW3PLlmC7koU4-13" value="" style="edgeStyle=orthogonalEdgeStyle;rounded=0;orthogonalLoop=1;jettySize=auto;html=1;" edge="1" parent="1" source="yg1M-SZNW3PLlmC7koU4-10" target="yg1M-SZNW3PLlmC7koU4-12">
          <mxGeometry relative="1" as="geometry" />
        </mxCell>
        <mxCell id="yg1M-SZNW3PLlmC7koU4-10" value="Get Next Number" style="whiteSpace=wrap;html=1;rounded=1;" vertex="1" parent="1">
          <mxGeometry x="410" y="420" width="120" height="60" as="geometry" />
        </mxCell>
        <mxCell id="yg1M-SZNW3PLlmC7koU4-20" value="" style="edgeStyle=orthogonalEdgeStyle;rounded=0;orthogonalLoop=1;jettySize=auto;html=1;" edge="1" parent="1" source="yg1M-SZNW3PLlmC7koU4-12" target="yg1M-SZNW3PLlmC7koU4-19">
          <mxGeometry relative="1" as="geometry" />
        </mxCell>
        <mxCell id="yg1M-SZNW3PLlmC7koU4-22" value="" style="edgeStyle=orthogonalEdgeStyle;rounded=0;orthogonalLoop=1;jettySize=auto;html=1;" edge="1" parent="1" source="yg1M-SZNW3PLlmC7koU4-12" target="yg1M-SZNW3PLlmC7koU4-21">
          <mxGeometry relative="1" as="geometry" />
        </mxCell>
        <mxCell id="yg1M-SZNW3PLlmC7koU4-12" value="check for more" style="whiteSpace=wrap;html=1;rounded=1;" vertex="1" parent="1">
          <mxGeometry x="410" y="560" width="120" height="60" as="geometry" />
        </mxCell>
        <mxCell id="yg1M-SZNW3PLlmC7koU4-24" value="" style="edgeStyle=orthogonalEdgeStyle;rounded=0;orthogonalLoop=1;jettySize=auto;html=1;" edge="1" parent="1" source="yg1M-SZNW3PLlmC7koU4-19" target="yg1M-SZNW3PLlmC7koU4-23">
          <mxGeometry relative="1" as="geometry" />
        </mxCell>
        <mxCell id="yg1M-SZNW3PLlmC7koU4-19" value="If Action type" style="whiteSpace=wrap;html=1;rounded=1;" vertex="1" parent="1">
          <mxGeometry x="270" y="670" width="120" height="60" as="geometry" />
        </mxCell>
        <mxCell id="yg1M-SZNW3PLlmC7koU4-26" value="" style="edgeStyle=orthogonalEdgeStyle;rounded=0;orthogonalLoop=1;jettySize=auto;html=1;" edge="1" parent="1" source="yg1M-SZNW3PLlmC7koU4-21" target="yg1M-SZNW3PLlmC7koU4-25">
          <mxGeometry relative="1" as="geometry" />
        </mxCell>
        <mxCell id="yg1M-SZNW3PLlmC7koU4-21" value="If Done" style="whiteSpace=wrap;html=1;rounded=1;" vertex="1" parent="1">
          <mxGeometry x="550" y="670" width="120" height="60" as="geometry" />
        </mxCell>
        <mxCell id="yg1M-SZNW3PLlmC7koU4-28" value="" style="edgeStyle=orthogonalEdgeStyle;rounded=0;orthogonalLoop=1;jettySize=auto;html=1;" edge="1" parent="1" source="yg1M-SZNW3PLlmC7koU4-23" target="yg1M-SZNW3PLlmC7koU4-27">
          <mxGeometry relative="1" as="geometry" />
        </mxCell>
        <mxCell id="yg1M-SZNW3PLlmC7koU4-23" value="Request next number" style="whiteSpace=wrap;html=1;rounded=1;" vertex="1" parent="1">
          <mxGeometry x="270" y="810" width="120" height="60" as="geometry" />
        </mxCell>
        <mxCell id="yg1M-SZNW3PLlmC7koU4-25" value="End" style="rhombus;whiteSpace=wrap;html=1;rounded=1;" vertex="1" parent="1">
          <mxGeometry x="570" y="800" width="80" height="80" as="geometry" />
        </mxCell>
        <mxCell id="yg1M-SZNW3PLlmC7koU4-30" value="" style="edgeStyle=orthogonalEdgeStyle;rounded=0;orthogonalLoop=1;jettySize=auto;html=1;" edge="1" parent="1" source="yg1M-SZNW3PLlmC7koU4-27" target="yg1M-SZNW3PLlmC7koU4-29">
          <mxGeometry relative="1" as="geometry" />
        </mxCell>
        <mxCell id="yg1M-SZNW3PLlmC7koU4-27" value="Repeat So on, So on..." style="whiteSpace=wrap;html=1;rounded=1;" vertex="1" parent="1">
          <mxGeometry x="270" y="950" width="120" height="60" as="geometry" />
        </mxCell>
        <mxCell id="yg1M-SZNW3PLlmC7koU4-29" value="End" style="rhombus;whiteSpace=wrap;html=1;rounded=1;" vertex="1" parent="1">
          <mxGeometry x="290" y="1080" width="80" height="80" as="geometry" />
        </mxCell>
      </root>
    </mxGraphModel>
  </diagram>
</mxfile>
